<svg viewBox="0 0 24 24" xmlns="http://www.w3.org/2000/svg">
  <rect x="9" y="1" width="2" height="2"/>
  <rect x="13" y="1" width="2" height="2"/>
  <rect x="5" y="3" width="2" height="2"/>
  <rect x="9" y="3" width="2" height="2"/>
  <rect x="13" y="3" width="2" height="2"/>
  <rect x="17" y="3" width="2" height="2"/>
  <rect x="3" y="7" width="2" height="2"/>
  <rect x="7" y="7" width="2" height="2"/>
  <rect x="11" y="7" width="2" height="2"/>
  <rect x="15" y="7" width="2" height="2"/>
  <rect x="19" y="7" width="2" height="2"/>
  <rect x="1" y="11" width="2" height="2"/>
  <rect x="5" y="11" width="2" height="2"/>
  <rect x="9" y="11" width="2" height="2"/>
  <rect x="13" y="11" width="2" height="2"/>
  <rect x="17" y="11" width="2" height="2"/>
  <rect x="21" y="11" width="2" height="2"/>
  <rect x="3" y="15" width="2" height="2"/>
  <rect x="7" y="15" width="2" height="2"/>
  <rect x="11" y="15" width="2" height="2"/>
  <rect x="15" y="15" width="2" height="2"/>
  <rect x="19" y="15" width="2" height="2"/>
  <rect x="5" y="19" width="2" height="2"/>
  <rect x="9" y="19" width="2" height="2"/>
  <rect x="13" y="19" width="2" height="2"/>
  <rect x="17" y="19" width="2" height="2"/>
  <rect x="9" y="21" width="2" height="2"/>
  <rect x="13" y="21" width="2" height="2"/>
</svg>
