<svg viewBox="0 0 24 24" xmlns="http://www.w3.org/2000/svg">
  <rect x="1" y="3" width="2" height="2"/>
  <rect x="5" y="3" width="2" height="2"/>
  <rect x="9" y="3" width="2" height="2"/>
  <rect x="13" y="3" width="2" height="2"/>
  <rect x="17" y="3" width="2" height="2"/>
  <rect x="21" y="3" width="2" height="2"/>

  <rect x="1" y="7" width="2" height="2"/>
  <rect x="5" y="7" width="2" height="2"/>
  <rect x="9" y="7" width="2" height="2"/>
  <rect x="13" y="7" width="2" height="2"/>
  <rect x="17" y="7" width="2" height="2"/>
  <rect x="21" y="7" width="2" height="2"/>

  <rect x="1" y="11" width="2" height="2"/>
  <rect x="5" y="11" width="2" height="2"/>
  <rect x="9" y="11" width="2" height="2"/>
  <rect x="13" y="11" width="2" height="2"/>
  <rect x="17" y="11" width="2" height="2"/>
  <rect x="21" y="11" width="2" height="2"/>

  <rect x="1" y="15" width="2" height="2"/>
  <rect x="5" y="15" width="2" height="2"/>
  <rect x="9" y="15" width="2" height="2"/>
  <rect x="13" y="15" width="2" height="2"/>
  <rect x="17" y="15" width="2" height="2"/>
  <rect x="21" y="15" width="2" height="2"/>

  <rect x="1" y="19" width="2" height="2"/>
  <rect x="5" y="19" width="2" height="2"/>
  <rect x="9" y="19" width="2" height="2"/>
  <rect x="13" y="19" width="2" height="2"/>
  <rect x="17" y="19" width="2" height="2"/>
  <rect x="21" y="19" width="2" height="2"/>
</svg>
