<svg viewBox="0 0 24 24" xmlns="http://www.w3.org/2000/svg">
  <!-- Box A (top-left) -->
  <rect x="1" y="1" width="2" height="2"/>
  <rect x="5" y="1" width="2" height="2"/>
  <rect x="9" y="1" width="2" height="2"/>
  <rect x="13" y="1" width="2" height="2"/>
  <rect x="17" y="1" width="2" height="2"/>

  <rect x="1" y="5" width="2" height="2"/>
  <rect x="1" y="9" width="2" height="2"/>
  <rect x="1" y="13" width="2" height="2"/>

  <rect x="17" y="5" width="2" height="2"/>
  <rect x="17" y="9" width="2" height="2"/>
  <rect x="17" y="13" width="2" height="2"/>

  <rect x="5" y="13" width="2" height="2"/>
  <rect x="9" y="13" width="2" height="2"/>
  <rect x="13" y="13" width="2" height="2"/>

  <!-- Box B (bottom-right, overlapping) -->
  <rect x="9" y="9" width="2" height="2"/>
  <rect x="13" y="9" width="2" height="2"/>
  <rect x="21" y="9" width="2" height="2"/>

  <rect x="9" y="17" width="2" height="2"/>
  <rect x="21" y="17" width="2" height="2"/>

  <rect x="9" y="21" width="2" height="2"/>
  <rect x="13" y="21" width="2" height="2"/>
  <rect x="17" y="21" width="2" height="2"/>
  <rect x="21" y="21" width="2" height="2"/>

  <rect x="9" y="13" width="2" height="2"/>
  <rect x="21" y="13" width="2" height="2"/>
</svg>
